<?xml version="1.0" encoding="utf-8" ?>
<svg xmlns="http://www.w3.org/2000/svg" xmlns:xlink="http://www.w3.org/1999/xlink" width="1024" height="1024">
	<path fill="#D400F1" transform="scale(2 2)" d="M356.605 336C363.809 346.328 363.297 364.412 354.614 373.967C354.357 370.471 366.313 357.83 358.627 340.848C357.879 339.195 356.762 337.873 356.605 336Z"/>
	<path fill="#7D23FB" transform="scale(2 2)" d="M269.271 331.121C271.708 331.104 292.371 329.922 284.222 338.352C282.641 339.988 279.286 339.502 277.188 339.477C273.533 339.474 266.055 340.539 263.247 338.157C258.01 333.714 264.785 331.206 269.271 331.121Z"/>
	<path fill="#7D23FB" transform="scale(2 2)" d="M265.484 347.243C268.629 347.189 281.291 346.809 283.143 347.697C286.846 349.471 285.707 354.727 282.167 355.895C278.747 355.881 267.906 356.415 265.533 355.612C260.727 353.985 261.346 349.001 265.484 347.243Z"/>
	<path fill="#2400EE" transform="scale(2 2)" d="M115.941 144.704C117.952 144.84 119.085 146.074 120.265 147.586C120.698 157.323 120.397 167.338 120.265 177.083C119.214 178.358 118.331 179.001 116.77 179.57C115.239 179.474 113.677 179.197 112.805 177.755C111.985 176.398 111.766 148.998 112.518 147.176C113.078 145.819 114.697 145.242 115.941 144.704Z"/>
	<path fill="#2400EE" transform="scale(2 2)" d="M145.695 72.6972L147.155 72.7028L147.051 72.9103C133.069 77.411 124.236 81.4242 116.88 95.8181C116.401 96.7554 115.407 98.3317 115.439 99.3854C123.188 105.841 120.742 103.061 124.256 96.893C129.05 88.4779 137.592 82.1713 147.116 80.2222C147.198 80.3224 147.425 80.5506 147.458 80.6704C134.012 83.7913 123.151 94.0983 120.81 108.017C119.898 113.442 123.774 142.935 114.497 137.764C110.738 135.668 112.176 127.531 112.196 124.058C112.348 98.4877 117.607 79.9646 145.695 72.6972Z"/>
	<path fill="#7D23FB" transform="scale(2 2)" d="M195.534 191.688C201.576 191.671 216.588 190.504 220.977 194.126C223.521 196.226 232.098 208.777 232.244 211.539C232.57 217.689 221.725 215.774 218.117 215.772L194.125 215.753C190.994 215.783 186.156 216.575 185.945 212.249C185.595 205.047 194.727 207.11 199.404 207.117L220.489 207.127C219.185 204.74 217.808 202.144 216.137 200.001C211.727 199.725 196.946 200.724 194.22 199.758C190.074 198.288 191.143 193.405 195.534 191.688Z"/>
	<path fill="#D400F1" transform="scale(2 2)" d="M296.877 191.688C302.458 191.685 320.89 188.843 321.006 195.5C321.108 201.392 314.091 200.028 310.185 200.026L296.877 200.001C294.958 202.192 293.398 204.685 291.823 207.127L322.851 207.127C326.159 208.151 328.6 212.025 325.506 214.912C323.472 216.809 312.37 215.77 309.46 215.768L282.167 215.753C280.585 214.504 280.006 213.225 279.271 211.412C282.161 204.299 288.692 193.242 296.877 191.688Z"/>
	<path fill="#7D23FB" transform="scale(2 2)" d="M154.612 431.735C159.372 431.596 164.155 431.729 168.919 431.731L282.167 431.735C287.674 433.625 311.959 430.694 314.007 433.731C313.944 434.949 313.951 437.535 312.933 438.292C307.954 441.991 278.853 437.009 271.098 439.766C261.631 440.165 251.903 439.764 242.397 439.765L189.727 439.766C191.863 438.408 195.76 439.704 198.246 439.071C199.55 437.898 201.442 434.118 202.101 432.158C191.235 431.229 177.996 431.693 167.017 431.723C162.913 431.734 158.687 432.41 154.612 431.735Z"/>
	<path fill="#D400F1" transform="scale(2 2)" d="M200.641 228.575L272.122 228.574C278.149 228.574 308.925 227.535 312.637 229.117C316.75 230.869 314.747 236.105 311.062 236.937C304.519 237.271 297.774 236.945 291.211 236.944L216.608 236.925C211.559 236.924 205.869 237.293 200.918 236.967C194.992 236.578 195.126 229.272 200.641 228.575Z"/>
	<path fill="#7D23FB" transform="scale(2 2)" d="M217.974 334.493C222.72 325.386 228.033 316.561 232.967 307.558C236.112 301.821 245.038 276.601 252.889 286.455L252.898 373.32C252.901 377.044 253.073 380.839 252.889 384.554C251.597 386.049 250.441 386.954 248.402 387.135C242.783 387.634 244.398 376.627 244.415 373.29L244.426 303.751L228.835 331.958C226.801 335.688 224.022 341.835 221.603 345.006C221.384 342.509 228.042 334.098 228.23 330.615C228.534 324.974 230.466 327.63 227.763 319.627L227.43 319.507L227.259 319.252C223.937 324.069 221.75 329.636 218.435 334.487L217.974 334.493Z"/>
	<path fill="#7D23FB" transform="scale(2 2)" d="M188.32 171.693C192.008 170.965 199.471 152.202 206.894 149.031C206.913 149.266 200.094 167.769 199.905 168.141C198.219 171.457 188.679 183.92 189.727 185.025C178.792 203.42 178.787 194.976 178.764 217.882C178.749 232.363 174.396 245.458 194.88 244.286C207.23 243.579 207.071 250.984 201.078 252.428C189.978 255.104 174.197 252.655 171.268 239.363C170.053 233.85 170.092 205.231 171.244 200.159C172.731 193.613 179.352 185.378 183.089 179.57C178.2 173.235 172.541 178.206 168.325 175.127C158.899 168.243 179.863 163.626 188.32 171.693Z"/>
	<path fill="#2400EE" transform="scale(2 2)" d="M160.231 384.554C148.806 397.419 151.747 363.685 151.748 360.023L151.733 298.495C151.73 294.849 151.323 290.657 152.035 287.077C152.728 283.589 157.292 281.943 159.53 285.162C161.568 288.094 163.178 291.605 164.933 294.728L175.493 313.46C184.576 329.861 193.973 346.176 202.633 362.797C207.388 353.133 212.538 343.788 217.974 334.493L218.435 334.487C221.75 329.636 223.937 324.069 227.259 319.252L227.43 319.507L227.763 319.627C230.466 327.63 228.534 324.974 228.23 330.615C228.042 334.098 221.384 342.509 221.603 345.006C220.808 347.379 218.978 349.958 217.794 352.2C215.414 356.708 207.682 375.849 201.709 374.68C197.669 373.889 191.909 360.234 189.629 356.126L169.605 320.011C166.532 314.579 163.558 309.029 160.231 303.751L160.231 357.586C160.232 366.57 160.378 375.573 160.231 384.554Z"/>
	<defs>
		<linearGradient id="gradient_0" gradientUnits="userSpaceOnUse" x1="345.51163" y1="201.83424" x2="198.21738" y2="186.40746">
			<stop offset="0" stop-color="#C810F9"/>
			<stop offset="1" stop-color="#7C21FB"/>
		</linearGradient>
	</defs>
	<path fill="url(#gradient_0)" transform="scale(2 2)" d="M188.32 171.693C193.84 161.186 203.817 148.015 215.224 144.489C236.749 137.837 283.96 137.148 304.033 147.734C312.712 152.311 316.765 162.059 322.851 169.273C328.84 169.348 341.006 166.364 343.852 169.45C345.66 171.411 345.493 174.882 343.446 176.586C339.439 179.922 333.04 178.225 328.241 178.429C333.147 187.785 340.798 194.189 342.211 205.676C342.767 210.19 342.865 236.92 341.799 240.689C339.15 250.063 329.867 253.203 321.101 252.727C317.152 252.846 310.791 254.065 307.839 250.777C300.905 241.93 324.33 244.627 326.575 244.316C336.419 242.956 334.038 232.204 334.042 225.018C334.056 197.83 333.819 201.477 317.9 177.911C313.905 171.995 310.075 165.654 305.437 160.224C292.012 144.504 243.011 147.461 225.559 150.819C201.921 155.367 201.425 169.249 189.727 185.025C188.679 183.92 198.219 171.457 199.905 168.141C200.094 167.769 206.913 149.266 206.894 149.031C199.471 152.202 192.008 170.965 188.32 171.693Z"/>
	<path fill="#D400F1" transform="scale(2 2)" d="M307.839 250.777C313.281 252.54 320.902 251.155 323.224 251.913L321.967 252.146L322.055 252.207C321.666 252.358 321.358 252.389 321.101 252.727C317.152 252.846 310.791 254.065 307.839 250.777Z"/>
	<defs>
		<linearGradient id="gradient_1" gradientUnits="userSpaceOnUse" x1="360.92142" y1="336.90335" x2="289.61978" y2="336.05139">
			<stop offset="0" stop-color="#DB12F5"/>
			<stop offset="1" stop-color="#8D1BFB"/>
		</linearGradient>
	</defs>
	<path fill="url(#gradient_1)" transform="scale(2 2)" d="M354.614 373.967C353.044 377.516 345.485 382.661 342.026 384.432C325.577 392.85 305.576 388.115 293.121 375.099C291.28 373.175 287.844 369.743 288.967 366.762C291.738 359.41 296.598 365.686 299.033 368.616C312.993 385.412 343.2 384.73 351.718 363.525C362.231 337.351 328.274 315.247 304.434 334.278C301.74 336.428 294.365 345.359 291.695 336.968C291.044 334.922 296.625 295.213 297.613 289.962C298.944 282.895 306.883 285.023 313.392 285.017L345.994 285.012C349.061 285.013 352.268 284.847 355.318 285.163C358.775 285.522 364.484 293.407 349.546 293.269L305.56 293.263C305.016 303.466 302.857 315.882 301.059 326.029C312.912 319.101 326.285 316.219 339.576 321.477C345.741 323.916 353.905 329.75 356.605 336C356.762 337.873 357.879 339.195 358.627 340.848C366.313 357.83 354.357 370.471 354.614 373.967Z"/>
	<path fill="#2400EE" transform="scale(2 2)" d="M189.727 439.766C177.971 439.765 166.134 440.094 154.388 439.788C133.392 439.242 115.842 422.972 112.617 402.47C111.551 395.693 112.17 385.075 112.177 377.955L112.175 208.655C112.175 205.036 110.996 189.805 113.661 187.53C115.84 185.669 118.732 187.358 120.265 189.179C120.545 206.059 120.266 222.986 120.266 239.871L120.252 380.482C120.251 386.568 119.739 395.027 120.486 400.865C122.742 418.487 137.642 429.765 154.612 431.735C158.687 432.41 162.913 431.734 167.017 431.723C177.996 431.693 191.235 431.229 202.101 432.158C201.442 434.118 199.55 437.898 198.246 439.071C195.76 439.704 191.863 438.408 189.727 439.766Z"/>
	<defs>
		<linearGradient id="gradient_2" gradientUnits="userSpaceOnUse" x1="409.15939" y1="249.33676" x2="286.66467" y2="257.69882">
			<stop offset="0" stop-color="#F704F3"/>
			<stop offset="1" stop-color="#9C28F9"/>
		</linearGradient>
	</defs>
	<path fill="url(#gradient_2)" transform="scale(2 2)" d="M145.695 72.6972C153.907 70.7485 168.652 71.6031 177.588 71.6047L227.071 71.5959L345.459 71.5869C352.476 71.5867 359.831 71.1657 366.735 72.5765C391.739 77.6855 400.483 99.1615 400.48 121.855L400.464 392.377C400.405 405.427 397.522 417.062 387.938 426.53C375.736 438.588 364.515 439.786 348.589 439.779L271.348 439.769L271.098 439.766C278.853 437.009 307.954 441.991 312.933 438.292C313.951 437.535 313.944 434.949 314.007 433.731C311.959 430.694 287.674 433.625 282.167 431.735L333.496 431.736C341.902 431.737 357.347 432.539 365.02 430.73C381.101 426.939 392.37 411.864 392.454 395.506L392.349 120.698C392.353 108.588 391.639 99.5882 382.345 90.3319C370.972 79.005 362.126 80.0568 347.421 80.0719L324.23 80.0774C320.511 108.877 297.655 105.439 276.547 105.431C262.713 105.425 248.807 105.745 234.979 105.432C215.154 106.687 189.313 105.449 187.404 80.0774L164.953 80.0716C159.119 80.0727 153.255 79.9093 147.458 80.6704C147.425 80.5506 147.198 80.3224 147.116 80.2222C137.592 82.1713 129.05 88.4779 124.256 96.893C120.742 103.061 123.188 105.841 115.439 99.3854C115.407 98.3317 116.401 96.7554 116.88 95.8181C124.236 81.4242 133.069 77.411 147.051 72.9103L147.155 72.7028L145.695 72.6972ZM225.09 80.0774C215.271 80.0862 205.341 80.4215 195.534 80.0774C199.517 93.1764 205.867 96.9544 218.924 97.0821L288.721 97.105C303.502 97.1113 311.932 96.5024 315.98 80.0774L225.09 80.0774Z"/>
	<path fill="#D400F1" transform="scale(2 2)" d="M284.708 76.259L285.006 76.4783C285.23 77.0972 284.907 77.7108 284.708 78.3041L284.141 77.7564C284.042 76.9732 284.263 76.8841 284.708 76.259Z"/>
	<path fill="#7D23FB" transform="scale(2 2)" d="M145.695 72.6972C153.907 70.7485 168.652 71.6031 177.588 71.6047L227.071 71.5959C228.917 72.9159 238.313 71.6323 241.039 71.6016C251.664 71.4821 274.855 70.1242 284.964 72.9334C284.579 74.2869 283.791 77.2054 282.52 77.8698C273.849 82.4025 227.658 78.1084 225.09 80.0774C215.271 80.0862 205.341 80.4215 195.534 80.0774C199.517 93.1764 205.867 96.9544 218.924 97.0821C221.81 97.5984 234.26 97.42 238.43 97.4254C248.949 97.439 277.634 95.5249 284.106 98.2124C284.55 106.441 278.032 104.95 272.387 104.939L256.988 104.931C252.944 104.94 238.515 104.793 234.979 105.432C215.154 106.687 189.313 105.449 187.404 80.0774L164.953 80.0716C159.119 80.0727 153.255 79.9093 147.458 80.6704C147.425 80.5506 147.198 80.3224 147.116 80.2222C137.592 82.1713 129.05 88.4779 124.256 96.893C120.742 103.061 123.188 105.841 115.439 99.3854C115.407 98.3317 116.401 96.7554 116.88 95.8181C124.236 81.4242 133.069 77.411 147.051 72.9103L147.155 72.7028L145.695 72.6972Z"/>
</svg>
